<svg xmlns="http://www.w3.org/2000/svg" xmlns:svg="http://www.w3.org/2000/svg" xmlns:xlink="http://www.w3.org/1999/xlink" version="1.0" height="1210pt" width="559pt" viewBox="526 37 567 1216" ><defs><style type="text/css">
            @font-face {
                font-family: 'lt_regular';
                src: url('https://app.creately.com/diagram/assets/fonts/lato/lt-regular-webfont.woff2') format('woff2'),
                    url('https://app.creately.com/diagram/assets/fonts/lato/lt-regular-webfont.woff') format('woff');
                font-weight: normal;
                font-style: normal;
            }
            @font-face {
                font-family: 'noto_regular';
                src: url('https://app.creately.com/diagram/assets/fonts/noto/noto-regular.woff') format('woff'),
                     url('https://app.creately.com/diagram/assets/fonts/noto/noto-regular.woff2') format('woff2');
                font-weight: normal;
                font-style: normal;
            }
        p {
            margin: 0;
        }
        </style></defs><defs><style>
            span{ display: inline-block; }
        </style></defs><g id="SwAxD2T0c0h"><g transform="translate(560.0000000000001 120.00000000000001)"><rect x="0" y="0" width="180" height="60" rx="10" ry="10" fill="rgb(255,255,255)" stroke="#0995CE" stroke-width="2" stroke-linecap="round" stroke-linejoin="round" stroke-dasharray="0 0"/></g><g transform="translate(616.0000000000001, 135.5) rotate(0, 34, 9.5)" width="68" height="19"><text text-decoration="none" x="16" fill="#0995ce" font-size="9pt" font-family="lt_regular"  y="13">Search&#160;</text><text text-decoration="none" x="19" fill="#0995ce" font-size="9pt" font-family="lt_regular"  y="32">Flight</text><text text-decoration="none" x="49" fill="#4b4b4b" font-size="10pt" font-family="noto_regular"  y="32"></text></g></g><g id="ZOXtKgU5TXP"><g transform="translate(560 300)"><rect x="0" y="0" width="180" height="60" rx="10" ry="10" fill="rgb(255,255,255)" stroke="#0995CE" stroke-width="2" stroke-linecap="round" stroke-linejoin="round" stroke-dasharray="0 0"/></g><g transform="translate(598.5, 315.5) rotate(0, 51.5, 9.5)" width="103" height="19"><text text-decoration="none" x="0" fill="#0995ce" font-size="9pt" font-family="lt_regular"  y="15">Select&#160;</text><text text-decoration="none" x="35" fill="#0995ce" font-size="9pt" font-family="lt_regular"  y="15">Flight&#160;</text><text text-decoration="none" x="68" fill="#0995ce" font-size="9pt" font-family="lt_regular"  y="15">&#x26;&#160;</text><text text-decoration="none" x="80" fill="#0995ce" font-size="9pt" font-family="lt_regular"  y="15">Seat</text><text text-decoration="none" x="103" fill="#4b4b4b" font-size="10pt" font-family="noto_regular"  y="15"></text></g></g><g id="lddKTFRWGRM"><g transform="translate(880.0000000000001 120)"><rect x="0" y="0" width="189.99999999999994" height="60" rx="10" ry="10" fill="rgb(255,255,255)" stroke="#0995CE" stroke-width="2" stroke-linecap="round" stroke-linejoin="round" stroke-dasharray="0 0"/></g><g transform="translate(912, 135.5) rotate(0, 63, 9.5)" width="126" height="19"><text text-decoration="none" x="30" fill="#0995ce" font-size="9pt" font-family="lt_regular"  y="13">Check&#160;</text><text text-decoration="none" x="66" fill="#0995ce" font-size="9pt" font-family="lt_regular"  y="13">Flight&#160;</text><text text-decoration="none" x="34" fill="#0995ce" font-size="9pt" font-family="lt_regular"  y="32">Availability</text><text text-decoration="none" x="92" fill="#4b4b4b" font-size="10pt" font-family="noto_regular"  y="32"></text></g></g><g id="3ftKL5tKhBh"><g transform="translate(880 300)"><rect x="0" y="0" width="190" height="60" rx="10" ry="10" fill="rgb(255,255,255)" stroke="#0995CE" stroke-width="2" stroke-linecap="round" stroke-linejoin="round" stroke-dasharray="0 0"/></g><g transform="translate(895, 307) rotate(0, 80, 18)" width="160" height="36"><text text-decoration="none" x="5.5" fill="#0995ce" font-size="9pt" font-family="lt_regular"  y="13">Check&#160;</text><text text-decoration="none" x="41.5" fill="#0995ce" font-size="9pt" font-family="lt_regular"  y="13">&#x26;&#160;</text><text text-decoration="none" x="53.5" fill="#0995ce" font-size="9pt" font-family="lt_regular"  y="13">Provide&#160;</text><text text-decoration="none" x="96.5" fill="#0995ce" font-size="9pt" font-family="lt_regular"  y="13">Availability&#160;</text><text text-decoration="none" x="27" fill="#0995ce" font-size="9pt" font-family="lt_regular"  y="32">&#x26;&#160;</text><text text-decoration="none" x="39" fill="#0995ce" font-size="9pt" font-family="lt_regular"  y="32">Price&#160;</text><text text-decoration="none" x="68" fill="#0995ce" font-size="9pt" font-family="lt_regular"  y="32">to&#160;</text><text text-decoration="none" x="82" fill="#0995ce" font-size="9pt" font-family="lt_regular"  y="32">Customer</text><text text-decoration="none" x="133" fill="#4b4b4b" font-size="10pt" font-family="noto_regular"  y="32"></text></g></g><g id="5eBvVYHmOsj"><g transform="translate(959.9999999999999 210.00000000000006)"><path d="M 15.000000000000002,0 L 0,15.000000000000002 L 15.000000000000002,30.000000000000004 L 30.000000000000004,15.000000000000002 L 15.000000000000002,0 Z" fill="rgb(255,255,255)" stroke="#C0232C" stroke-width="2" stroke-linecap="round" stroke-linejoin="round" stroke-dasharray="0 0"/></g></g><g id="L79pzIoEZMp"><g><path d="M 975,210 L 975,200.00000000000003 Q 975,199.99999999999991 975,190 Q 975,180.00000000000006 975,180.00000000000003 L 975,170" fill="none" stroke="#2F2F2F" stroke-width="2" stroke-linecap="round" stroke-linejoin="round" stroke-dasharray="0 0"/><path d="M 975,210 L 981.4971751412429,203.04347826086956 M 975,210 L 968.5028248587571,203.04347826086956 Z" fill="rgb(255,255,255)" stroke="#2F2F2F" stroke-width="2" stroke-linecap="round" stroke-linejoin="round"/></g></g><g id="J94OveBBmnL"><g><path d="M 740,145 L 880,145" fill="none" stroke="#2F2F2F" stroke-width="2" stroke-linecap="round" stroke-linejoin="round" stroke-dasharray="0 0"/><path d="M 880,145 L 873.0434782608696,138.50282485875707 M 880,145 L 873.0434782608696,151.49717514124293 Z" fill="rgb(255,255,255)" stroke="#2F2F2F" stroke-width="2" stroke-linecap="round" stroke-linejoin="round"/></g></g><g id="rvThlIYWtXg"><mask id="49d57" x="636" y="156" width="338" height="83" maskUnits="userSpaceOnUse"><rect x="636" y="156" width="338" height="83" fill="white" /><rect x="725.5040276179516" y="212.50000000000003" width="119" height="25" fill="black" /></mask><g xmlns="http://www.w3.org/2000/svg" mask="url(#49d57)"><path d="M 960,225 L 660.0000000000001,225.00000000000006 Q 650.0000000000001,225.00000000000006 650.0000000000001,215.00000000000006 L 650,190" fill="none" stroke="#2F2F2F" stroke-width="2" stroke-linecap="round" stroke-linejoin="round" stroke-dasharray="0 0"/><path d="M 650,190 L 643.5028248587571,196.95652173913044 M 650,190 L 656.4971751412429,196.95652173913044 Z" fill="rgb(255,255,255)" stroke="#2F2F2F" stroke-width="2" stroke-linecap="round" stroke-linejoin="round"/></g><g transform="translate(728.5040276179516, 215.50000000000003)" width="113" height="19"><text text-decoration="none" x="1" fill="#2F2F2F" font-size="10pt" font-family="lt_regular"  y="15">Flight&#160;</text><text text-decoration="none" x="36" fill="#2F2F2F" font-size="10pt" font-family="lt_regular"  y="15">Not&#160;</text><text text-decoration="none" x="61" fill="#2F2F2F" font-size="10pt" font-family="lt_regular"  y="15">Available</text><text text-decoration="none" x="112" fill="#4b4b4b" font-size="10pt" font-family="noto_regular"  y="15"></text></g></g><g id="ulpeEihm2c9"><g transform="translate(560 480)"><rect x="0" y="0" width="180" height="60" rx="10" ry="10" fill="rgb(255,255,255)" stroke="#0995CE" stroke-width="2" stroke-linecap="round" stroke-linejoin="round" stroke-dasharray="0 0"/></g><g transform="translate(576, 487) rotate(0, 74, 18)" width="148" height="36"><text text-decoration="none" x="0" fill="#0995ce" font-size="9pt" font-family="lt_regular"  y="13">Enter&#160;</text><text text-decoration="none" x="31" fill="#0995ce" font-size="9pt" font-family="lt_regular"  y="13">Passenger&#160;</text><text text-decoration="none" x="86" fill="#0995ce" font-size="9pt" font-family="lt_regular"  y="13">Information</text><text text-decoration="none" x="148" fill="#0995ce" font-size="9pt" font-family="lt_regular"  y="13"></text><text text-decoration="none" x="32" fill="#0995ce" font-size="9pt" font-family="lt_regular"  y="32">&#x26;&#160;</text><text text-decoration="none" x="44" fill="#0995ce" font-size="9pt" font-family="lt_regular"  y="32">Billing&#160;</text><text text-decoration="none" x="80" fill="#0995ce" font-size="9pt" font-family="lt_regular"  y="32">Details</text><text text-decoration="none" x="116" fill="#4b4b4b" font-size="10pt" font-family="noto_regular"  y="32"></text></g></g><g id="EH8M8qzjybt"><g><path d="M 880,325 L 740,325" fill="none" stroke="#2F2F2F" stroke-width="2" stroke-linecap="round" stroke-linejoin="round" stroke-dasharray="0 0"/><path d="M 740,325 L 746.9565217391304,331.49717514124296 M 740,325 L 746.9565217391304,318.50282485875704 Z" fill="rgb(255,255,255)" stroke="#2F2F2F" stroke-width="2" stroke-linecap="round" stroke-linejoin="round"/></g></g><g id="N4Ga3lBfgah"><mask id="57b94" x="961" y="226" width="28" height="88" maskUnits="userSpaceOnUse"><rect x="961" y="226" width="28" height="88" fill="white" /><rect x="927.9999999999999" y="257.5" width="94" height="25" fill="black" /></mask><g mask="url(#57b94)"><path d="M 975,300 L 975,270 Q 974.9999999999999,260.0000000000001 974.9999999999999,260 L 975,240" fill="none" stroke="#2F2F2F" stroke-width="2" stroke-linecap="round" stroke-linejoin="round" stroke-dasharray="0 0"/><path d="M 975,300 L 981.4971751412429,293.04347826086956 M 975,300 L 968.5028248587571,293.04347826086956 Z" fill="rgb(255,255,255)" stroke="#2F2F2F" stroke-width="2" stroke-linecap="round" stroke-linejoin="round"/></g><g transform="translate(930.9999999999999, 260.5)" width="88" height="19"><text text-decoration="none" x="1" fill="#2F2F2F" font-size="10pt" font-family="lt_regular"  y="15">Flight&#160;</text><text text-decoration="none" x="36" fill="#2F2F2F" font-size="10pt" font-family="lt_regular"  y="15">Available</text><text text-decoration="none" x="87" fill="#4b4b4b" font-size="10pt" font-family="noto_regular"  y="15"></text></g></g><g id="heHZhwuoEA4"><g transform="translate(880 410)"><rect x="0" y="0" width="190" height="60" rx="10" ry="10" fill="rgb(255,255,255)" stroke="#0995CE" stroke-width="2" stroke-linecap="round" stroke-linejoin="round" stroke-dasharray="0 0"/></g><g transform="translate(896.5, 417) rotate(0, 78.5, 18)" width="157" height="36"><text text-decoration="none" x="0" fill="#0995ce" font-size="9pt" font-family="lt_regular"  y="13">Ask&#160;</text><text text-decoration="none" x="22" fill="#0995ce" font-size="9pt" font-family="lt_regular"  y="13">for&#160;</text><text text-decoration="none" x="40" fill="#0995ce" font-size="9pt" font-family="lt_regular"  y="13">Passenger&#160;</text><text text-decoration="none" x="95" fill="#0995ce" font-size="9pt" font-family="lt_regular"  y="13">information</text><text text-decoration="none" x="157" fill="#0995ce" font-size="9pt" font-family="lt_regular"  y="13"></text><text text-decoration="none" x="36.5" fill="#0995ce" font-size="9pt" font-family="lt_regular"  y="32">&#x26;&#160;</text><text text-decoration="none" x="48.5" fill="#0995ce" font-size="9pt" font-family="lt_regular"  y="32">Billing&#160;</text><text text-decoration="none" x="84.5" fill="#0995ce" font-size="9pt" font-family="lt_regular"  y="32">Details</text><text text-decoration="none" x="120.5" fill="#4b4b4b" font-size="10pt" font-family="noto_regular"  y="32"></text></g></g><g id="B1d0WVMsUHX"><g><path d="M 650,360 L 650,425 Q 650,435 660,435 L 880,435" fill="none" stroke="#2F2F2F" stroke-width="2" stroke-linecap="round" stroke-linejoin="round" stroke-dasharray="0 0"/><path d="M 880,435 L 873.0434782608696,428.50282485875704 M 880,435 L 873.0434782608696,441.49717514124296 Z" fill="rgb(255,255,255)" stroke="#2F2F2F" stroke-width="2" stroke-linecap="round" stroke-linejoin="round"/></g></g><g id="YVxODCkWfzZ"><g><path d="M 975,470 L 975,495 Q 975,505 965,505 L 740,505" fill="none" stroke="#2F2F2F" stroke-width="2" stroke-linecap="round" stroke-linejoin="round" stroke-dasharray="0 0"/><path d="M 740,505 L 746.9565217391304,511.49717514124296 M 740,505 L 746.9565217391304,498.50282485875704 Z" fill="rgb(255,255,255)" stroke="#2F2F2F" stroke-width="2" stroke-linecap="round" stroke-linejoin="round"/></g></g><g id="iRBiF8z9s2a"><g transform="translate(880 550)"><rect x="0" y="0" width="190" height="60" rx="10" ry="10" fill="rgb(255,255,255)" stroke="#0995CE" stroke-width="2" stroke-linecap="round" stroke-linejoin="round" stroke-dasharray="0 0"/></g><g transform="translate(922.5, 565.5) rotate(0, 52.5, 9.5)" width="105" height="19"><text text-decoration="none" x="31" fill="#0995ce" font-size="9pt" font-family="lt_regular"  y="13">Validate&#160;</text><text text-decoration="none" x="21.5" fill="#0995ce" font-size="9pt" font-family="lt_regular"  y="32">Transaction</text><text text-decoration="none" x="83.5" fill="#4b4b4b" font-size="10pt" font-family="noto_regular"  y="32"></text></g></g><g id="4cXLFhCfEGj"><g transform="translate(639.9999999999999 40)"><ellipse cx="9.999999999999979" cy="9.999999999999979" rx="9.999999999999979" ry="9.999999999999979" fill="rgb(52,189,204)" stroke="#34BDCC" stroke-width="2" stroke-linecap="round" stroke-linejoin="round" stroke-dasharray="0 0"/></g></g><g id="gSkddRLhm87"><g><path d="M 650,60 L 650,120" fill="none" stroke="#2F2F2F" stroke-width="2" stroke-linecap="round" stroke-linejoin="round" stroke-dasharray="0 0"/></g></g><g id="aYMOdae2dDN"><g><path d="M 650,540 L 650,565 Q 650,575 660,575 L 880,575" fill="none" stroke="#2F2F2F" stroke-width="2" stroke-linecap="round" stroke-linejoin="round" stroke-dasharray="0 0"/><path d="M 880,575 L 873.0434782608696,568.5028248587571 M 880,575 L 873.0434782608696,581.4971751412429 Z" fill="rgb(255,255,255)" stroke="#2F2F2F" stroke-width="2" stroke-linecap="round" stroke-linejoin="round"/></g></g><g id="hMgbWYCY01e"><g transform="translate(960 650)"><path d="M 15.000000000000002,0 L 0,15.000000000000002 L 15.000000000000002,30.000000000000004 L 30.000000000000004,15.000000000000002 L 15.000000000000002,0 Z" fill="rgb(255,255,255)" stroke="#C0232C" stroke-width="2" stroke-linecap="round" stroke-linejoin="round" stroke-dasharray="0 0"/></g></g><g id="ZKq9Xjkp0vc"><g><path d="M 975,610 L 975,650" fill="none" stroke="#2F2F2F" stroke-width="2" stroke-linecap="round" stroke-linejoin="round" stroke-dasharray="0 0"/><path d="M 975,650 L 981.4971751412429,643.0434782608696 M 975,650 L 968.5028248587571,643.0434782608696 Z" fill="rgb(255,255,255)" stroke="#2F2F2F" stroke-width="2" stroke-linecap="round" stroke-linejoin="round"/></g></g><g id="DwPqtmqogEH"><g transform="translate(880 730)"><rect x="0" y="0" width="190" height="60" rx="10" ry="10" fill="rgb(255,255,255)" stroke="#0995CE" stroke-width="2" stroke-linecap="round" stroke-linejoin="round" stroke-dasharray="0 0"/></g><g transform="translate(901, 737) rotate(0, 74, 18)" width="148" height="36"><text text-decoration="none" x="14" fill="#0995ce" font-size="9pt" font-family="lt_regular"  y="13">Confirm&#160;</text><text text-decoration="none" x="60" fill="#0995ce" font-size="9pt" font-family="lt_regular"  y="13">Reservation&#160;</text><text text-decoration="none" x="125" fill="#0995ce" font-size="9pt" font-family="lt_regular"  y="13">&#x26;&#160;</text><text text-decoration="none" x="1" fill="#0995ce" font-size="9pt" font-family="lt_regular"  y="32">Send&#160;</text><text text-decoration="none" x="31" fill="#0995ce" font-size="9pt" font-family="lt_regular"  y="32">Confirmation&#160;</text><text text-decoration="none" x="104" fill="#0995ce" font-size="9pt" font-family="lt_regular"  y="32">Number</text><text text-decoration="none" x="147" fill="#4b4b4b" font-size="10pt" font-family="noto_regular"  y="32"></text></g></g><g id="47W3US5q9Ff"><mask id="a864c" x="961" y="666" width="28" height="78" maskUnits="userSpaceOnUse"><rect x="961" y="666" width="28" height="78" fill="white" /><rect x="923" y="692.5" width="104" height="25" fill="black" /></mask><g mask="url(#a864c)"><path d="M 975,680 L 975,730" fill="none" stroke="#2F2F2F" stroke-width="2" stroke-linecap="round" stroke-linejoin="round" stroke-dasharray="0 0"/><path d="M 975,730 L 981.4971751412429,723.0434782608696 M 975,730 L 968.5028248587571,723.0434782608696 Z" fill="rgb(255,255,255)" stroke="#2F2F2F" stroke-width="2" stroke-linecap="round" stroke-linejoin="round"/></g><g transform="translate(926, 695.5)" width="98" height="19"><text text-decoration="none" x="0.5" fill="#2F2F2F" font-size="10pt" font-family="lt_regular"  y="15">Valid&#160;</text><text text-decoration="none" x="31.5" fill="#2F2F2F" font-size="10pt" font-family="lt_regular"  y="15">Transaction</text><text text-decoration="none" x="97.5" fill="#4b4b4b" font-size="10pt" font-family="noto_regular"  y="15"></text></g></g><g id="uXwml63kMvC"><mask id="5f412" x="517" y="495" width="457" height="184" maskUnits="userSpaceOnUse"><rect x="517" y="495" width="457" height="184" fill="white" /><rect x="622.5609896432682" y="652.5" width="114" height="25" fill="black" /></mask><g mask="url(#5f412)"><path d="M 557,509 L 531,509 L 531,587 L 531,665 L 960,665" fill="none" stroke="#2F2F2F" stroke-width="2" stroke-linecap="round" stroke-linejoin="round" stroke-dasharray="0 0"/><path d="M 557,509 L 550.0434782608696,502.50282485875704 M 557,509 L 550.0434782608696,515.4971751412429 Z" fill="rgb(255,255,255)" stroke="#2F2F2F" stroke-width="2" stroke-linecap="round" stroke-linejoin="round"/></g><g transform="translate(625.5609896432682, 655.5)" width="108" height="19"><text text-decoration="none" x="1" fill="#2F2F2F" font-size="10pt" font-family="lt_regular"  y="15">Invalid&#160;</text><text text-decoration="none" x="41" fill="#2F2F2F" font-size="10pt" font-family="lt_regular"  y="15">Transaction</text><text text-decoration="none" x="107" fill="#4b4b4b" font-size="10pt" font-family="noto_regular"  y="15"></text></g></g><g id="7vLmhP83rOi"><g transform="translate(560 730)"><rect x="0" y="0" width="190" height="60" rx="10" ry="10" fill="rgb(255,255,255)" stroke="#0995CE" stroke-width="2" stroke-linecap="round" stroke-linejoin="round" stroke-dasharray="0 0"/></g><g transform="translate(598.5, 737) rotate(0, 56.5, 18)" width="113" height="36"><text text-decoration="none" x="36" fill="rgb(9, 149, 216)" font-size="9pt" font-family="lt_regular"  y="13">Recieve&#160;</text><text text-decoration="none" x="21.5" fill="rgb(9, 149, 216)" font-size="9pt" font-family="lt_regular"  y="30">Confirmation</text><text text-decoration="none" x="91.5" fill="rgb(9, 149, 216)" font-size="9pt" font-family="lt_regular"  y="30"></text><text text-decoration="none" x="35" fill="rgb(9, 149, 216)" font-size="9pt" font-family="lt_regular"  y="49">Number</text><text text-decoration="none" x="78" fill="#4b4b4b" font-size="10pt" font-family="noto_regular"  y="49"></text></g></g><g id="CMkaDilSf67"><g><path d="M 880,755 L 750,755" fill="none" stroke="#7E7E7E" stroke-width="2" stroke-linecap="round" stroke-linejoin="round"/><path d="M 750,755 L 756.9565217391304,761.4971751412429 M 750,755 L 756.9565217391304,748.5028248587571 Z" fill="rgb(255,255,255)" stroke="#7E7E7E" stroke-width="2" stroke-linecap="round" stroke-linejoin="round"/></g></g><g id="33OKshQVezj"><g transform="translate(610 850)"><rect x="0" y="0" width="90" height="10.000000000000002" fill="rgb(52,189,204)" stroke="#34BDCC" stroke-width="2" stroke-linecap="round" stroke-linejoin="round" stroke-dasharray="0 0"/></g></g><g id="4y7WXi58VYy"><g><path d="M 655,790 L 655,850" fill="none" stroke="#2F2F2F" stroke-width="2" stroke-linecap="round" stroke-linejoin="round" stroke-dasharray="0 0"/><path d="M 655,850 L 661.4971751412429,843.0434782608696 M 655,850 L 648.5028248587571,843.0434782608696 Z" fill="rgb(255,255,255)" stroke="#2F2F2F" stroke-width="2" stroke-linecap="round" stroke-linejoin="round"/></g></g><g id="4n0NlQhSbni"><g transform="translate(639.9999999999999 950.0000000000001)"><path d="M 15.000000000000002,0 L 0,15.000000000000002 L 15.000000000000002,30.000000000000004 L 30.000000000000004,15.000000000000002 L 15.000000000000002,0 Z" fill="rgb(255,255,255)" stroke="#C0232C" stroke-width="2" stroke-linecap="round" stroke-linejoin="round" stroke-dasharray="0 0"/></g></g><g id="vTlw56IXfeC"><g><path d="M 655,860 L 655,905 Q 654.9999999999999,914.9999999999999 654.9999999999999,915 L 655,950" fill="none" stroke="#2F2F2F" stroke-width="2" stroke-linecap="round" stroke-linejoin="round" stroke-dasharray="0 0"/><path d="M 655,950 L 661.4971751412429,943.0434782608696 M 655,950 L 648.5028248587571,943.0434782608696 Z" fill="rgb(255,255,255)" stroke="#2F2F2F" stroke-width="2" stroke-linecap="round" stroke-linejoin="round"/></g></g><g id="aVE7dDydbbQ"><g transform="translate(880.0000000000001 940.0000000000001)"><rect x="0" y="0" width="190" height="60" rx="10" ry="10" fill="rgb(255,255,255)" stroke="#0995CE" stroke-width="2" stroke-linecap="round" stroke-linejoin="round" stroke-dasharray="0 0"/></g><g transform="translate(907.5, 947.0000000000001) rotate(0, 67.5, 18)" width="135" height="36"><text text-decoration="none" x="32" fill="rgb(9, 149, 216)" font-size="9pt" font-family="lt_regular"  y="13">Show&#160;</text><text text-decoration="none" x="65" fill="rgb(9, 149, 216)" font-size="9pt" font-family="lt_regular"  y="13">Flight&#160;</text><text text-decoration="none" x="98" fill="rgb(9, 149, 216)" font-size="9pt" font-family="lt_regular"  y="13">/&#160;</text><text text-decoration="none" x="36.5" fill="rgb(9, 149, 216)" font-size="9pt" font-family="lt_regular"  y="30">Reservation</text><text text-decoration="none" x="98.5" fill="rgb(9, 149, 216)" font-size="9pt" font-family="lt_regular"  y="30"></text><text text-decoration="none" x="51" fill="rgb(9, 149, 216)" font-size="9pt" font-family="lt_regular"  y="49">Status</text><text text-decoration="none" x="84" fill="#4b4b4b" font-size="10pt" font-family="noto_regular"  y="49"></text></g></g><g id="mybTfhDuDWD"><mask id="f97da" x="656" y="951" width="238" height="28" maskUnits="userSpaceOnUse"><rect x="656" y="951" width="238" height="28" fill="white" /><rect x="732.3441782613245" y="934.5" width="79" height="61" fill="black" /></mask><g mask="url(#f97da)"><path d="M 880,965 L 670,965" fill="none" stroke="#2F2F2F" stroke-width="2" stroke-linecap="round" stroke-linejoin="round" stroke-dasharray="0 0"/><path d="M 670,965 L 676.9565217391304,971.4971751412429 M 670,965 L 676.9565217391304,958.5028248587571 Z" fill="rgb(255,255,255)" stroke="#2F2F2F" stroke-width="2" stroke-linecap="round" stroke-linejoin="round"/></g><g transform="translate(735.3441782613245, 937.5)" width="73" height="55"><text text-decoration="none" x="1" fill="#2F2F2F" font-size="10pt" font-family="lt_regular"  y="14">Check&#160;</text><text text-decoration="none" x="40" fill="#2F2F2F" font-size="10pt" font-family="lt_regular"  y="14">Flight</text><text text-decoration="none" x="72" fill="#2F2F2F" font-size="10pt" font-family="lt_regular"  y="14"></text><text text-decoration="none" x="1" fill="#2F2F2F" font-size="10pt" font-family="lt_regular"  y="32">Reservation&#160;</text><text text-decoration="none" x="72" fill="#2F2F2F" font-size="10pt" font-family="lt_regular"  y="32"></text><text text-decoration="none" x="25" fill="#2F2F2F" font-size="10pt" font-family="lt_regular"  y="51">Stat</text><text text-decoration="none" x="48" fill="#4b4b4b" font-size="10pt" font-family="noto_regular"  y="51"></text></g></g><g id="mhXr6rlvArg"><g transform="translate(880 1040)"><rect x="0" y="0" width="190" height="60" rx="10" ry="10" fill="rgb(255,255,255)" stroke="#0995CE" stroke-width="2" stroke-linecap="round" stroke-linejoin="round" stroke-dasharray="0 0"/></g><g transform="translate(904.5, 1047) rotate(0, 70.5, 18)" width="141" height="36"><text text-decoration="none" x="14" fill="rgb(9, 149, 216)" font-size="9pt" font-family="lt_regular"  y="13">Cancel&#160;</text><text text-decoration="none" x="53" fill="rgb(9, 149, 216)" font-size="9pt" font-family="lt_regular"  y="13">Reservation&#160;</text><text text-decoration="none" x="118" fill="rgb(9, 149, 216)" font-size="9pt" font-family="lt_regular"  y="13">&#x26;&#160;</text><text text-decoration="none" x="57" fill="rgb(9, 149, 216)" font-size="9pt" font-family="lt_regular"  y="30">Send</text><text text-decoration="none" x="84" fill="rgb(9, 149, 216)" font-size="9pt" font-family="lt_regular"  y="30"></text><text text-decoration="none" x="37.5" fill="rgb(9, 149, 216)" font-size="9pt" font-family="lt_regular"  y="49">Cancellation</text><text text-decoration="none" x="103.5" fill="#4b4b4b" font-size="10pt" font-family="noto_regular"  y="49"></text></g></g><g id="GNfuvIbz6gL"><mask id="39261" x="641" y="966" width="253" height="113" maskUnits="userSpaceOnUse"><rect x="641" y="966" width="253" height="113" fill="white" /><rect x="700.308906789413" y="1052.5" width="117" height="25" fill="black" /></mask><g mask="url(#39261)"><path d="M 655,980 L 654.9999999999999,1055 Q 654.9999999999999,1065 664.9999999999999,1065 L 880,1065" fill="none" stroke="#2F2F2F" stroke-width="2" stroke-linecap="round" stroke-linejoin="round" stroke-dasharray="0 0"/><path d="M 880,1065 L 873.0434782608696,1058.502824858757 M 880,1065 L 873.0434782608696,1071.497175141243 Z" fill="rgb(255,255,255)" stroke="#2F2F2F" stroke-width="2" stroke-linecap="round" stroke-linejoin="round"/></g><g transform="translate(703.308906789413, 1055.5)" width="111" height="19"><text text-decoration="none" x="1" fill="#2F2F2F" font-size="10pt" font-family="lt_regular"  y="15">Cancel&#160;</text><text text-decoration="none" x="42" fill="#2F2F2F" font-size="10pt" font-family="lt_regular"  y="15">Reservation</text><text text-decoration="none" x="110" fill="#4b4b4b" font-size="10pt" font-family="noto_regular"  y="15"></text></g></g><g id="zC3Bfq0GCOX"><g transform="translate(930 1160)"><rect x="0" y="0" width="90" height="10.000000000000002" fill="rgb(52,189,204)" stroke="#34BDCC" stroke-width="2" stroke-linecap="round" stroke-linejoin="round" stroke-dasharray="0 0"/></g></g><g id="bd2kwgPkuDr"><g><path d="M 975,1100 L 975,1160" fill="none" stroke="#2F2F2F" stroke-width="2" stroke-linecap="round" stroke-linejoin="round" stroke-dasharray="0 0"/><path d="M 975,1160 L 981.4971751412429,1153.0434782608695 M 975,1160 L 968.5028248587571,1153.0434782608695 Z" fill="rgb(255,255,255)" stroke="#2F2F2F" stroke-width="2" stroke-linecap="round" stroke-linejoin="round"/></g></g><g id="4mjXkliCVl0"><g><path d="M 1070,965 L 1090,965 L 1090,988 L 1090,1010 L 1090,1010 L 1090.3780207134637,1010 L 1090,1088 L 1090.3780207134637,1165 L 1020,1165" fill="none" stroke="#2F2F2F" stroke-width="2" stroke-linecap="round" stroke-linejoin="round" stroke-dasharray="0 0"/><path d="M 1020,1165 L 1026.9565217391305,1171.497175141243 M 1020,1165 L 1026.9565217391305,1158.502824858757 Z" fill="rgb(255,255,255)" stroke="#2F2F2F" stroke-width="2" stroke-linecap="round" stroke-linejoin="round"/></g></g><g id="WQZdiAoH87q"><g transform="translate(960 1220)"><ellipse cx="15.000000000000002" cy="15.000000000000002" rx="15.000000000000002" ry="15.000000000000002" fill="rgb(52,189,204)" stroke="#34BDCC" stroke-width="2" stroke-linecap="round" stroke-linejoin="round" stroke-dasharray="0 0"/></g></g><g id="xFaa28ePgge"><g transform="translate(970 1229.9999999999998)"><ellipse cx="5" cy="5" rx="5" ry="5" fill="rgb(233,228,232)" stroke="#E9E4E8" stroke-width="2" stroke-linecap="round" stroke-linejoin="round" stroke-dasharray="0 0"/></g></g><g id="sXYJBTIDFUR"><g><path d="M 975,1170 L 975,1220" fill="none" stroke="#2F2F2F" stroke-width="2" stroke-linecap="round" stroke-linejoin="round" stroke-dasharray="0 0"/></g></g><g id="DzY9zTFUxlE"><mask id="5c14b" x="523" y="951" width="421" height="228" maskUnits="userSpaceOnUse"><rect x="523" y="951" width="421" height="228" fill="white" /><rect x="755.2028274760429" y="1152.5" width="28" height="25" fill="black" /></mask><g mask="url(#5c14b)"><path d="M 930,1165 L 547,1165 Q 537,1165 537,1155 L 537,1065 L 537,975.7573160011283 Q 537,965.7573160011283 546.9998330667557,965.8150969410494 L 579,966 L 610.0001751754187,965.8165061834807 Q 610.7574779102322,965.8120236162601 620,965 Q 630,965 630,965 L 640,965" fill="none" stroke="#2F2F2F" stroke-width="2" stroke-linecap="round" stroke-linejoin="round" stroke-dasharray="0 0"/><path d="M 640,965 L 633.0434782608696,958.5028248587571 M 640,965 L 633.0434782608696,971.4971751412429 Z" fill="rgb(255,255,255)" stroke="#2F2F2F" stroke-width="2" stroke-linecap="round" stroke-linejoin="round"/></g><g transform="translate(758.2028274760429, 1155.5)" width="22" height="19"><text text-decoration="none" x="0" fill="#2F2F2F" font-size="10pt" font-family="lt_regular"  y="15">Exit</text><text text-decoration="none" x="22" fill="#4b4b4b" font-size="10pt" font-family="noto_regular"  y="15"></text></g>
        
        <g xmlns="http://www.w3.org/2000/svg" transform="translate(550, 1200.5)" width="73" height="55">


    <text xmlns="http://www.w3.org/2000/svg" text-decoration="none" x="1" fill="#2F2F2F" font-size="10pt" font-family="lt_regular" y="14">Kiran Patil : 211070904


    </text></g>
        </g></svg>